PathFileType	4	(x/y/z)	S10_P20_T16
DataRate	CameraRate	NumFrames	NumMarkers	Units	OrigDataRate	OrigDataStartFrame	OrigNumFrames
240	240	5	51	mm	240	200	398
Frame#	Time	Sternum			R.Acromium			L.Acromium			Top.Head			R.ASIS			L.ASIS			R.PSIS			L.PSIS			R.Great.Tro			L.Great.Tro			R.Iliac.Crest			L.Iliac.Crest			V.Sacral			R.Thigh.Upper.Post			R.Thigh.Lower.Ant			R.Thigh.Lower.Post			R.Thigh.Upper.Ant			R.Knee.Lat			R.Knee.Med			R.Shank.Upper.Post			R.Shank.Lower.Ant			R.Shank.Lower.Post			R.Shank.Upper.Ant			R.Ankle.Lat			R.Ankle.Med			R.Heel.Upper			R.Heel.Med			R.Heel.Lat			R.Toe.Lat			R.Toe.Med			R.Toe.Tip			L.Thigh.Upper.Post			L.Thigh.Lower.Ant			L.Thigh.Lower.Post			L.Thigh.Upper.Ant			L.Knee.Lat			L.Knee.Med			L.Shank.Upper.Post			L.Shank.Lower.Ant			L.Shank.Lower.Post			L.Shank.Upper.Ant			L.Ankle.Lat			L.Ankle.Med			L.Heel.Upper			L.Heel.Med			L.Heel.Lat			L.Toe.Lat			L.Toe.Med			L.Toe.Tip			Cervical.Spine			Back			
		X1	Y1	Z1	X2	Y2	Z2	X3	Y3	Z3	X4	Y4	Z4	X5	Y5	Z5	X6	Y6	Z6	X7	Y7	Z7	X8	Y8	Z8	X9	Y9	Z9	X10	Y10	Z10	X11	Y11	Z11	X12	Y12	Z12	X13	Y13	Z13	X14	Y14	Z14	X15	Y15	Z15	X16	Y16	Z16	X17	Y17	Z17	X18	Y18	Z18	X19	Y19	Z19	X20	Y20	Z20	X21	Y21	Z21	X22	Y22	Z22	X23	Y23	Z23	X24	Y24	Z24	X25	Y25	Z25	X26	Y26	Z26	X27	Y27	Z27	X28	Y28	Z28	X29	Y29	Z29	X30	Y30	Z30	X31	Y31	Z31	X32	Y32	Z32	X33	Y33	Z33	X34	Y34	Z34	X35	Y35	Z35	X36	Y36	Z36	X37	Y37	Z37	X38	Y38	Z38	X39	Y39	Z39	X40	Y40	Z40	X41	Y41	Z41	X42	Y42	Z42	X43	Y43	Z43	X44	Y44	Z44	X45	Y45	Z45	X46	Y46	Z46	X47	Y47	Z47	X48	Y48	Z48	X49	Y49	Z49	X50	Y50	Z50	X51	Y51	Z51	

200	0.82917	-195.8	1299.1	279.62	-293.33	1460.9	443.78	-335.69	1487.1	149.66	-309.12	1777.2	301.47	-243.69	1023.7	400.76	-257.71	1048.5	169.99	-448.38	1054.2	326.69	-448.84	1062.4	246.07	-316.73	945.66	474.55	-318.97	989.57	112.96	-332.74	1106.1	452.61	-327.58	1120.7	147.17	-471.35	1024.7	290.94	-324.9	732.6	455.21	-280.23	651.92	411.09	-341.46	645.62	441.42	-260.66	740.4	421.16	-363.39	522.87	398.72	-382.8	534.14	272.45	-481.25	317.51	402.05	-435.28	242.66	378.08	-498.37	245.9	394.29	-411.49	315.89	385.09	-508.12	139.46	370.33	-512	151.33	292.09	-587.29	103.87	330.89	-586.47	73.282	303.88	-583.92	79.841	365.53	-413.39	41.448	395.02	-393.91	41.451	282.77	-330.9	46.598	319.69	-269.3	708.94	102.85	-176.42	652.63	122.43	-241.81	618.19	121.23	-196.86	739.59	103.82	-196.42	547.9	126.88	-166.56	541.76	255.03	-304.16	357.06	130.19	-257.17	257.51	126.78	-316.19	280.61	135	-244.83	333.09	121.95	-311.47	149.99	135.02	-281.35	154.63	216.25	-374.42	128.25	187.27	-364.34	94.698	218.66	-377.53	98.588	155.96	-213.62	56.939	95.081	-171.18	60.277	195.95	-124.69	66.869	143.17	-386.51	1520.1	315.36	-477.33	1314	316.6
201	0.83333	-190.78	1299.2	279.34	-288.02	1461.3	443.4	-330.75	1487	149.3	-304.11	1777.3	301.03	-238.84	1023.6	400.51	-252.63	1048.8	169.8	-443.44	1054.4	326.34	-443.81	1062.6	245.73	-312.17	945.63	474.27	-313.85	990.03	112.68	-327.51	1106	452.37	-322.46	1121.1	146.99	-466.38	1025	290.54	-321.35	732.7	454.95	-277.13	651.82	410.76	-338.31	645.83	441.24	-257.1	740.22	420.83	-361.11	523.16	398.64	-380.57	534.47	272.36	-479.87	318.26	402	-434.19	243.27	378.14	-497.24	246.75	394.27	-410.12	316.41	385.14	-507.39	140.28	370.32	-511.21	152.11	292.06	-586.65	105.09	330.85	-585.94	74.522	303.84	-583.44	81.047	365.48	-413.19	41.518	395.03	-393.73	41.508	282.81	-330.71	46.484	319.74	-264.39	709.29	102.73	-171.78	652.68	122.82	-237.33	618.46	121.19	-191.85	739.74	104.15	-191.85	547.83	127.1	-162.73	541.89	255.36	-295.15	354.11	130.07	-245.43	255.87	126.78	-305.1	277.35	134.9	-235.17	331.76	121.94	-296.76	146.82	134.89	-266.74	152.21	216.24	-358.98	123.16	187.07	-347.99	89.914	218.52	-361.22	93.408	155.78	-196.14	56.547	95.131	-153.93	61.099	196	-107.62	69.054	143.29	-381.36	1520.3	315.07	-472.24	1314.2	316.65
202	0.8375	-185.74	1299.2	279.05	-282.72	1461.6	443.01	-325.77	1486.9	148.94	-299.11	1777.3	300.58	-233.97	1023.5	400.25	-247.53	1049.1	169.61	-438.48	1054.5	325.97	-438.76	1062.9	245.37	-307.59	945.57	473.99	-308.7	990.42	112.4	-322.28	1105.9	452.12	-317.31	1121.4	146.79	-461.38	1025.2	290.12	-317.76	732.77	454.7	-273.97	651.69	410.44	-335.11	646	441.06	-253.51	740.02	420.51	-358.77	523.42	398.56	-378.28	534.78	272.27	-478.46	319.01	401.93	-433.08	243.85	378.19	-496.09	247.59	394.25	-408.71	316.92	385.18	-506.65	141.1	370.29	-510.4	152.88	292.02	-585.99	106.31	330.78	-585.41	75.762	303.8	-582.95	82.258	365.42	-413	41.592	395.04	-393.54	41.559	282.86	-330.52	46.374	319.79	-259.62	709.55	102.65	-167.29	652.61	123.18	-233.01	618.64	121.17	-186.99	739.77	104.46	-187.39	547.68	127.31	-158.99	541.9	255.69	-286.12	351.2	129.91	-233.7	254.33	126.8	-293.98	274.17	134.8	-225.53	330.49	121.93	-282.01	143.82	134.78	-252.14	149.97	216.25	-343.45	118.27	186.86	-331.59	85.376	218.4	-344.82	88.455	155.6	-178.71	56.374	95.256	-136.79	62.158	196.13	-90.677	71.453	143.52	-376.2	1520.4	314.76	-467.13	1314.3	316.65
203	0.84167	-180.68	1299.2	278.76	-277.43	1461.9	442.62	-320.77	1486.7	148.58	-294.1	1777.4	300.13	-229.07	1023.4	399.99	-242.4	1049.3	169.42	-433.49	1054.6	325.57	-433.67	1063.1	244.99	-303	945.47	473.7	-303.51	990.74	112.11	-317.07	1105.7	451.86	-312.13	1121.7	146.58	-456.37	1025.4	289.67	-314.12	732.81	454.46	-270.77	651.54	410.13	-331.87	646.14	440.88	-249.87	739.78	420.21	-356.38	523.66	398.48	-375.91	535.08	272.17	-477.02	319.76	401.87	-431.93	244.42	378.24	-494.91	248.43	394.23	-407.28	317.4	385.21	-505.9	141.92	370.26	-509.59	153.66	291.97	-585.31	107.53	330.7	-584.86	77.003	303.74	-582.45	83.475	365.36	-412.82	41.671	395.04	-393.35	41.602	282.91	-330.34	46.266	319.84	-255	709.71	102.62	-162.95	652.42	123.5	-228.83	618.72	121.18	-182.26	739.68	104.74	-183.04	547.45	127.51	-155.31	541.81	256	-277.08	348.35	129.74	-222	252.91	126.82	-282.84	271.1	134.67	-215.92	329.27	121.93	-267.25	141	134.69	-237.58	147.93	216.27	-327.86	113.6	186.65	-315.17	81.095	218.29	-328.38	83.742	155.42	-161.34	56.427	95.456	-119.79	63.454	196.35	-73.886	74.066	143.85	-371.04	1520.5	314.44	-462	1314.4	316.6
204	0.84583	-175.61	1299.2	278.48	-272.15	1462.1	442.21	-315.74	1486.6	148.21	-289.1	1777.3	299.66	-224.14	1023.2	399.73	-237.23	1049.5	169.22	-428.48	1054.7	325.16	-428.55	1063.2	244.59	-298.38	945.35	473.41	-298.29	990.98	111.83	-311.87	1105.5	451.59	-306.92	1121.9	146.36	-451.33	1025.5	289.2	-310.44	732.81	454.24	-267.53	651.35	409.83	-328.59	646.26	440.71	-246.2	739.52	419.93	-353.94	523.87	398.39	-373.48	535.37	272.06	-475.54	320.5	401.79	-430.76	244.98	378.29	-493.71	249.27	394.2	-405.81	317.86	385.23	-505.13	142.74	370.22	-508.76	154.44	291.92	-584.62	108.75	330.61	-584.31	78.248	303.67	-581.95	84.7	365.28	-412.64	41.755	395.04	-393.15	41.639	282.96	-330.17	46.159	319.88	-250.53	709.77	102.61	-158.75	652.11	123.77	-224.78	618.7	121.21	-177.67	739.48	105	-178.78	547.14	127.7	-151.69	541.62	256.3	-268.04	345.55	129.55	-210.34	251.61	126.85	-271.7	268.14	134.54	-206.33	328.12	121.94	-252.5	138.37	134.61	-223.09	146.1	216.31	-312.25	109.15	186.43	-298.75	77.078	218.19	-311.9	79.283	155.26	-144.06	56.712	95.73	-102.95	64.986	196.64	-57.269	76.891	144.28	-365.88	1520.5	314.11	-456.86	1314.4	316.51
